<svg width="76" height="29" viewBox="0 0 76 29" fill="none" xmlns="http://www.w3.org/2000/svg">
<path d="M2.844 8.79601C2.428 8.79601 2.072 8.72001 1.776 8.56801C1.488 8.40801 1.284 8.17601 1.164 7.87201C1.044 7.56801 1.032 7.20001 1.128 6.76801L2.364 1.39201L3.744 1.00801L2.388 6.78001C2.308 7.13201 2.356 7.38801 2.532 7.54801C2.708 7.70001 2.936 7.77601 3.216 7.77601C3.408 7.77601 3.572 7.75201 3.708 7.70401C3.852 7.65601 3.98 7.59201 4.092 7.51201L4.188 8.46001C3.98 8.58801 3.764 8.67601 3.54 8.72401C3.324 8.77201 3.092 8.79601 2.844 8.79601ZM0.648004 3.70801L0.876004 2.70001H5.136L4.908 3.70801H0.648004ZM4.12819 8.70001L6.14419 1.19209e-05H7.42819L6.51619 3.94801L6.32419 4.09201C6.42819 3.77201 6.59219 3.50001 6.81619 3.27601C7.04019 3.05201 7.30019 2.88001 7.59619 2.76001C7.90019 2.64001 8.22819 2.58001 8.58019 2.58001C9.01219 2.58001 9.38419 2.68001 9.69619 2.88001C10.0082 3.07201 10.2282 3.34801 10.3562 3.70801C10.4922 4.06801 10.5042 4.50401 10.3922 5.01601L9.52819 8.70001H8.24419L9.08419 5.10001C9.18819 4.64401 9.14419 4.28801 8.95219 4.03201C8.76019 3.76801 8.45619 3.63601 8.04019 3.63601C7.72019 3.63601 7.43219 3.70801 7.17619 3.85201C6.92819 3.99601 6.72019 4.20801 6.55219 4.48801C6.38419 4.76001 6.24819 5.10401 6.14419 5.52001L5.41219 8.70001H4.12819ZM13.3038 8.80801C12.7358 8.80801 12.2478 8.69201 11.8398 8.46001C11.4318 8.22001 11.1158 7.89601 10.8918 7.48801C10.6678 7.08001 10.5558 6.62001 10.5558 6.10801C10.5558 5.46801 10.6838 4.88401 10.9398 4.35601C11.1958 3.82001 11.5678 3.39201 12.0558 3.07201C12.5438 2.75201 13.1318 2.59201 13.8198 2.59201C14.3318 2.59201 14.7718 2.69601 15.1398 2.90401C15.5078 3.11201 15.7878 3.40401 15.9798 3.78001C16.1718 4.14801 16.2678 4.58001 16.2678 5.07601C16.2678 5.23601 16.2558 5.40001 16.2318 5.56801C16.2158 5.73601 16.1798 5.90401 16.1238 6.07201H11.2878V5.08801H15.4278L14.9598 5.42401C14.9918 5.32801 15.0118 5.23601 15.0198 5.14801C15.0278 5.05201 15.0318 4.96401 15.0318 4.88401C15.0318 4.62001 14.9798 4.39201 14.8758 4.20001C14.7798 4.00801 14.6358 3.86001 14.4438 3.75601C14.2518 3.65201 14.0238 3.60001 13.7598 3.60001C13.3998 3.60001 13.0918 3.67601 12.8358 3.82801C12.5878 3.97201 12.3878 4.17201 12.2358 4.42801C12.0838 4.67601 11.9758 4.95201 11.9118 5.25601C11.8478 5.56001 11.8158 5.86001 11.8158 6.15601C11.8158 6.49201 11.8798 6.78401 12.0078 7.03201C12.1438 7.27201 12.3278 7.46001 12.5598 7.59601C12.7998 7.73201 13.0798 7.80001 13.3998 7.80001C13.7758 7.80001 14.0798 7.72001 14.3118 7.56001C14.5518 7.40001 14.7438 7.19601 14.8878 6.94801L15.9198 7.50001C15.7598 7.77201 15.5478 8.00801 15.2838 8.20801C15.0278 8.40001 14.7318 8.54801 14.3958 8.65201C14.0678 8.75601 13.7038 8.80801 13.3038 8.80801ZM26.6885 8.70001H24.5645L24.0125 6.91201H21.3005L20.7365 8.70001H18.6605L21.4445 0.780012H23.9165L26.6885 8.70001ZM21.6845 5.50801H23.6285L22.6565 2.30401L21.6845 5.50801ZM29.3136 0.780012V8.70001H27.2496V0.780012H29.3136ZM8.028 19.7H5.904L5.352 17.912H2.64L2.076 19.7H3.48128e-06L2.784 11.78H5.256L8.028 19.7ZM3.024 16.508H4.968L3.996 13.304L3.024 16.508ZM15.185 11.78V16.472C15.185 17.592 14.885 18.432 14.285 18.992C13.693 19.544 12.813 19.82 11.645 19.82C10.485 19.82 9.60497 19.544 9.00497 18.992C8.40497 18.432 8.10497 17.592 8.10497 16.472V11.78H10.181V16.508C10.181 17.076 10.301 17.5 10.541 17.78C10.789 18.06 11.157 18.2 11.645 18.2C12.141 18.2 12.509 18.06 12.749 17.78C12.997 17.5 13.121 17.076 13.121 16.508V11.78H15.185ZM23.0805 11.78V13.376H20.5005V19.7H18.4365V13.376H15.8445V11.78H23.0805ZM27.1242 11.66C27.9242 11.66 28.6122 11.824 29.1882 12.152C29.7722 12.472 30.2202 12.936 30.5322 13.544C30.8442 14.152 31.0002 14.884 31.0002 15.74C31.0002 16.596 30.8442 17.328 30.5322 17.936C30.2202 18.544 29.7722 19.012 29.1882 19.34C28.6122 19.66 27.9242 19.82 27.1242 19.82C26.3242 19.82 25.6322 19.66 25.0482 19.34C24.4642 19.012 24.0162 18.544 23.7042 17.936C23.3922 17.328 23.2362 16.596 23.2362 15.74C23.2362 14.884 23.3922 14.152 23.7042 13.544C24.0162 12.936 24.4642 12.472 25.0482 12.152C25.6322 11.824 26.3242 11.66 27.1242 11.66ZM27.1242 13.28C26.7402 13.28 26.4162 13.372 26.1522 13.556C25.8882 13.74 25.6882 14.016 25.5522 14.384C25.4162 14.744 25.3482 15.196 25.3482 15.74C25.3482 16.276 25.4162 16.728 25.5522 17.096C25.6882 17.464 25.8882 17.74 26.1522 17.924C26.4162 18.108 26.7402 18.2 27.1242 18.2C27.5082 18.2 27.8282 18.108 28.0842 17.924C28.3482 17.74 28.5482 17.464 28.6842 17.096C28.8202 16.728 28.8882 16.276 28.8882 15.74C28.8882 15.196 28.8202 14.744 28.6842 14.384C28.5482 14.016 28.3482 13.74 28.0842 13.556C27.8282 13.372 27.5082 13.28 27.1242 13.28ZM41.2279 11.78V19.7H39.4039V16.064L39.4639 13.628H39.4399L37.4839 19.7H35.8159L33.8599 13.628H33.8359L33.8959 16.064V19.7H32.0599V11.78H34.9999L36.2479 15.812L36.6919 17.492H36.7159L37.1719 15.824L38.4079 11.78H41.2279ZM49.8218 19.7H47.6978L47.1458 17.912H44.4338L43.8698 19.7H41.7938L44.5778 11.78H47.0498L49.8218 19.7ZM44.8178 16.508H46.7618L45.7898 13.304L44.8178 16.508ZM56.0468 11.78V13.376H53.4668V19.7H51.4028V13.376H48.8108V11.78H56.0468ZM58.9306 11.78V19.7H56.8666V11.78H58.9306ZM63.8789 11.66C64.6789 11.66 65.3669 11.824 65.9429 12.152C66.5269 12.472 66.9749 12.936 67.2869 13.544C67.5989 14.152 67.7549 14.884 67.7549 15.74C67.7549 16.596 67.5989 17.328 67.2869 17.936C66.9749 18.544 66.5269 19.012 65.9429 19.34C65.3669 19.66 64.6789 19.82 63.8789 19.82C63.0789 19.82 62.3869 19.66 61.8029 19.34C61.2189 19.012 60.7709 18.544 60.4589 17.936C60.1469 17.328 59.9909 16.596 59.9909 15.74C59.9909 14.884 60.1469 14.152 60.4589 13.544C60.7709 12.936 61.2189 12.472 61.8029 12.152C62.3869 11.824 63.0789 11.66 63.8789 11.66ZM63.8789 13.28C63.4949 13.28 63.1709 13.372 62.9069 13.556C62.6429 13.74 62.4429 14.016 62.3069 14.384C62.1709 14.744 62.1029 15.196 62.1029 15.74C62.1029 16.276 62.1709 16.728 62.3069 17.096C62.4429 17.464 62.6429 17.74 62.9069 17.924C63.1709 18.108 63.4949 18.2 63.8789 18.2C64.2629 18.2 64.5829 18.108 64.8389 17.924C65.1029 17.74 65.3029 17.464 65.4389 17.096C65.5749 16.728 65.6429 16.276 65.6429 15.74C65.6429 15.196 65.5749 14.744 65.4389 14.384C65.3029 14.016 65.1029 13.74 64.8389 13.556C64.5829 13.372 64.2629 13.28 63.8789 13.28ZM75.9546 11.78V19.7H73.6626L71.2026 15.416L70.6026 14.24H70.5906L70.6386 15.704V19.7H68.8146V11.78H71.1066L73.5666 16.064L74.1666 17.24H74.1786L74.1306 15.776V11.78H75.9546ZM3.312 28.808C2.736 28.808 2.24 28.688 1.824 28.448C1.416 28.208 1.1 27.884 0.876004 27.476C0.660004 27.06 0.552003 26.6 0.552003 26.096C0.552003 25.416 0.684004 24.816 0.948004 24.296C1.22 23.768 1.596 23.352 2.076 23.048C2.564 22.744 3.136 22.592 3.792 22.592C4.272 22.592 4.692 22.676 5.052 22.844C5.42 23.004 5.712 23.232 5.928 23.528C6.152 23.824 6.288 24.16 6.336 24.536L5.052 24.8C5.036 24.464 4.92 24.18 4.704 23.948C4.496 23.716 4.176 23.6 3.744 23.6C3.464 23.6 3.208 23.668 2.976 23.804C2.744 23.932 2.54 24.112 2.364 24.344C2.196 24.568 2.064 24.836 1.968 25.148C1.88 25.452 1.836 25.78 1.836 26.132C1.836 26.452 1.896 26.74 2.016 26.996C2.136 27.244 2.308 27.44 2.532 27.584C2.764 27.728 3.048 27.8 3.384 27.8C3.664 27.8 3.928 27.724 4.176 27.572C4.424 27.412 4.6 27.184 4.704 26.888L5.904 27.308C5.688 27.788 5.352 28.16 4.896 28.424C4.44 28.68 3.912 28.808 3.312 28.808ZM8.74819 28.808C8.15619 28.808 7.65219 28.688 7.23619 28.448C6.82819 28.208 6.51219 27.884 6.28819 27.476C6.06419 27.06 5.95219 26.604 5.95219 26.108C5.95219 25.428 6.08419 24.824 6.34819 24.296C6.62019 23.768 6.99219 23.352 7.46419 23.048C7.94419 22.744 8.50819 22.592 9.15619 22.592C9.74819 22.592 10.2482 22.712 10.6562 22.952C11.0722 23.192 11.3882 23.516 11.6042 23.924C11.8202 24.332 11.9282 24.788 11.9282 25.292C11.9282 25.956 11.7962 26.556 11.5322 27.092C11.2762 27.62 10.9082 28.04 10.4282 28.352C9.94819 28.656 9.38819 28.808 8.74819 28.808ZM8.77219 27.8C9.03619 27.8 9.28019 27.736 9.50419 27.608C9.73619 27.48 9.93619 27.3 10.1042 27.068C10.2802 26.836 10.4122 26.568 10.5002 26.264C10.5962 25.952 10.6442 25.62 10.6442 25.268C10.6442 24.948 10.5882 24.664 10.4762 24.416C10.3722 24.168 10.2042 23.972 9.97219 23.828C9.74819 23.676 9.46419 23.6 9.12019 23.6C8.85619 23.6 8.60819 23.664 8.37619 23.792C8.14419 23.92 7.94419 24.1 7.77619 24.332C7.60819 24.556 7.47619 24.824 7.38019 25.136C7.28419 25.44 7.23619 25.772 7.23619 26.132C7.23619 26.436 7.29219 26.716 7.40419 26.972C7.51619 27.228 7.68419 27.432 7.90819 27.584C8.14019 27.728 8.42819 27.8 8.77219 27.8ZM12.3709 28.808C12.1309 28.808 11.9349 28.744 11.7829 28.616C11.6309 28.48 11.5549 28.296 11.5549 28.064C11.5549 27.76 11.6429 27.52 11.8189 27.344C12.0029 27.168 12.2309 27.08 12.5029 27.08C12.7429 27.08 12.9389 27.148 13.0909 27.284C13.2429 27.412 13.3189 27.592 13.3189 27.824C13.3189 28.128 13.2309 28.368 13.0549 28.544C12.8789 28.72 12.6509 28.808 12.3709 28.808Z" fill="#141414"/>
</svg>
